<svg width="111" height="135" viewBox="0 0 111 135" fill="none" xmlns="http://www.w3.org/2000/svg">
<path d="M30.9 83H23.4H15.9H8.4V75.5H0.900002V68V60.5H8.4H15.9V68H23.4H30.9V60.5V53V45.5H23.4H15.9H8.4V38H0.900002V30.5V23V15.5V8H8.4V0.5H15.9H23.4H30.9H38.4V8H45.9V15.5V23V30.5V38V45.5V53V60.5V68V75.5H38.4V83H30.9ZM23.4 30.5H30.9V23V15.5H23.4H15.9V23V30.5H23.4ZM95.1 83H87.6H80.1H72.6H65.1H57.6V75.5H50.1V68V60.5H57.6H65.1V68H72.6H80.1H87.6H95.1V60.5V53V45.5H87.6H80.1H72.6H65.1H57.6V38H50.1V30.5V23V15.5V8H57.6V0.5H65.1H72.6H80.1H87.6H95.1H102.6V8H110.1V15.5V23H102.6H95.1V15.5H87.6H80.1H72.6H65.1V23V30.5H72.6H80.1H87.6H95.1H102.6V38H110.1V45.5V53V60.5V68V75.5H102.6V83H95.1ZM1.68947 135V90.1579H7.29474V106.974H18.5053V90.1579H24.1105V135H18.5053V112.579H7.29474V135H1.68947ZM43.1684 118.184V112.579H37.5632V118.184H43.1684ZM29.1553 135V123.789H31.9579V112.579H34.7605V101.368H37.5632V90.1579H43.1684V101.368H45.9711V112.579H48.7737V123.789H51.5763V135H45.9711V123.789H34.7605V135H29.1553ZM70.6342 129.395V123.789H73.4368V101.368H70.6342V95.7632H65.0289V129.395H70.6342ZM56.6211 135V129.395H59.4237V95.7632H56.6211V90.1579H73.4368V95.7632H79.0421V129.395H73.4368V135H56.6211ZM92.4947 135V112.579H89.6921V106.974H86.8895V98.5658H84.0868V90.1579H89.6921V98.5658H92.4947V106.974H98.1V98.5658H100.903V90.1579H106.508V98.5658H103.705V106.974H100.903V112.579H98.1V135H92.4947Z" fill="#848484"/>
</svg>
