<svg width="177" height="45" viewBox="0 0 177 45" fill="none" xmlns="http://www.w3.org/2000/svg">
<path d="M16.9161 45H12.8289H8.74174H4.65457V40.9128H0.567396V36.8257V32.7385H4.65457H8.74174V36.8257H12.8289H16.9161V32.7385V28.6513V24.5641H12.8289H8.74174H4.65457V20.477H0.567396V16.3898V12.3026V8.21546V4.12829H4.65457V0.0411181H8.74174H12.8289H16.9161H21.0033V4.12829H25.0904V8.21546V12.3026V16.3898V20.477V24.5641V28.6513V32.7385V36.8257V40.9128H21.0033V45H16.9161ZM12.8289 16.3898H16.9161V12.3026V8.21546H12.8289H8.74174V12.3026V16.3898H12.8289ZM57.7878 45H53.7006H49.6134H45.5263H41.4391H37.3519V40.9128H33.2648V36.8257V32.7385H37.3519H41.4391V36.8257H45.5263H49.6134H53.7006H57.7878V32.7385V28.6513V24.5641H53.7006H49.6134H45.5263H41.4391H37.3519V20.477H33.2648V16.3898V12.3026V8.21546V4.12829H37.3519V0.0411181H41.4391H45.5263H49.6134H53.7006H57.7878H61.875V4.12829H65.9621V8.21546V12.3026H61.875H57.7878V8.21546H53.7006H49.6134H45.5263H41.4391V12.3026V16.3898H45.5263H49.6134H53.7006H57.7878H61.875V20.477H65.9621V24.5641V28.6513V32.7385V36.8257V40.9128H61.875V45H57.7878ZM72.0111 45V0.157894H77.6164V16.9737H88.8269V0.157894H94.4322V45H88.8269V22.5789H77.6164V45H72.0111ZM113.49 28.1842V22.5789H107.885V28.1842H113.49ZM99.4769 45V33.7895H102.28V22.5789H105.082V11.3684H107.885V0.157894H113.49V11.3684H116.293V22.5789H119.095V33.7895H121.898V45H116.293V33.7895H105.082V45H99.4769ZM140.956 39.3947V33.7895H143.759V11.3684H140.956V5.76316H135.351V39.3947H140.956ZM126.943 45V39.3947H129.745V5.76316H126.943V0.157894H143.759V5.76316H149.364V39.3947H143.759V45H126.943ZM162.816 45V22.5789H160.014V16.9737H157.211V8.56579H154.409V0.157894H160.014V8.56579H162.816V16.9737H168.422V8.56579H171.224V0.157894H176.83V8.56579H174.027V16.9737H171.224V22.5789H168.422V45H162.816Z" fill="#848484"/>
</svg>
