<svg width="140" height="43" viewBox="0 0 140 43" fill="none" xmlns="http://www.w3.org/2000/svg">
<path d="M28.16 39.796C28.276 40.4147 28.218 40.9367 27.986 41.362C27.754 41.7487 27.4447 42.0387 27.058 42.232C26.8647 42.3093 26.652 42.348 26.42 42.348C26.2267 42.348 26.014 42.3867 25.782 42.464C24.9313 42.6573 24.0807 42.5993 23.23 42.29C22.418 42.0193 21.8573 41.6713 21.548 41.246C21.3547 40.9753 21.1807 40.666 21.026 40.318C20.8713 39.9313 20.678 39.622 20.446 39.39C20.3687 39.3127 20.272 39.2353 20.156 39.158C20.0787 39.0807 19.9627 39.0613 19.808 39.1C19.3827 39.216 18.9767 39.4287 18.59 39.738C18.242 40.0473 17.894 40.318 17.546 40.55C17.0433 40.8593 16.502 41.1493 15.922 41.42C15.342 41.652 14.7233 41.8647 14.066 42.058C13.6793 42.174 13.254 42.2513 12.79 42.29C12.3647 42.3287 11.9393 42.3867 11.514 42.464C11.3207 42.5027 11.1467 42.522 10.992 42.522C10.876 42.522 10.7407 42.522 10.586 42.522C10.1607 42.5993 9.75467 42.5993 9.368 42.522H8.846C8.65267 42.4833 8.45933 42.464 8.266 42.464C8.07267 42.464 7.89867 42.4253 7.744 42.348C7.58933 42.3093 7.454 42.29 7.338 42.29C7.26067 42.3287 7.164 42.3287 7.048 42.29C6.73867 42.2127 6.42933 42.1353 6.12 42.058C5.81067 42.0193 5.52067 41.942 5.25 41.826C4.09 41.3233 3.14267 40.7627 2.408 40.144C1.712 39.4867 1.132 38.578 0.668 37.418C0.32 36.5673 0.146 35.5427 0.146 34.344V33.126C0.184667 32.9327 0.204 32.7393 0.204 32.546C0.242667 32.314 0.281333 32.082 0.32 31.85C0.474667 31.4247 0.629333 30.9993 0.784 30.574C0.938667 30.1487 1.132 29.762 1.364 29.414C2.06 28.2927 3.00733 27.4613 4.206 26.92C5.40467 26.3787 6.71933 25.8953 8.15 25.47C8.69133 25.3153 9.252 25.1993 9.832 25.122C10.412 25.0447 10.992 24.948 11.572 24.832C11.8427 24.7547 12.094 24.716 12.326 24.716C12.5967 24.716 12.8867 24.6773 13.196 24.6C13.4667 24.5227 13.7373 24.484 14.008 24.484C14.2787 24.4453 14.5687 24.3873 14.878 24.31C15.8447 24.078 16.7533 23.8847 17.604 23.73C18.4547 23.5367 19.1313 23.092 19.634 22.396C19.866 22.0867 20.0593 21.7 20.214 21.236C20.3687 20.7333 20.3687 20.192 20.214 19.612C19.982 18.684 19.634 17.9493 19.17 17.408C18.7447 16.8667 18.126 16.4413 17.314 16.132C16.85 15.9387 16.2893 15.8033 15.632 15.726C15.0133 15.6487 14.356 15.61 13.66 15.61C12.964 15.61 12.2873 15.6487 11.63 15.726C10.9727 15.8033 10.412 15.9193 9.948 16.074C9.29067 16.306 8.65267 16.6347 8.034 17.06C7.72467 17.292 7.43467 17.6013 7.164 17.988C6.932 18.336 6.71933 18.7227 6.526 19.148C6.41 19.4573 6.294 19.786 6.178 20.134C6.10067 20.482 5.92667 20.7527 5.656 20.946C5.50133 21.062 5.23067 21.1587 4.844 21.236C4.496 21.2747 4.12867 21.294 3.742 21.294C3.35533 21.294 2.96867 21.2747 2.582 21.236C2.234 21.1587 1.98267 21.062 1.828 20.946C1.67333 20.83 1.55733 20.6367 1.48 20.366C1.40267 20.0953 1.40267 19.8053 1.48 19.496C1.596 18.9933 1.712 18.5293 1.828 18.104C1.98267 17.64 2.15667 17.1953 2.35 16.77C3.08467 15.4167 4.01267 14.3727 5.134 13.638C6.25533 12.8647 7.64733 12.246 9.31 11.782C9.69667 11.7047 10.0833 11.6467 10.47 11.608C10.8953 11.5693 11.3207 11.5113 11.746 11.434C11.9007 11.3953 12.152 11.3953 12.5 11.434C12.848 11.434 13.0607 11.3953 13.138 11.318C15.8447 11.2793 18.2033 11.5887 20.214 12.246C22.2247 12.9033 23.636 14.16 24.448 16.016C24.796 16.7893 24.9893 17.698 25.028 18.742C25.1053 19.7473 25.144 20.8107 25.144 21.932V34.75C25.144 35.2913 25.1633 35.8133 25.202 36.316C25.2407 36.8187 25.3567 37.2247 25.55 37.534C25.7433 37.8047 25.9947 37.998 26.304 38.114C26.652 38.2687 26.9807 38.3847 27.29 38.462C27.5993 38.5007 27.8313 38.6747 27.986 38.984C28.0633 39.1 28.102 39.216 28.102 39.332C28.102 39.448 28.1213 39.6027 28.16 39.796ZM19.866 33.358C20.098 32.8167 20.214 32.198 20.214 31.502C20.2527 30.7673 20.272 30.0133 20.272 29.24C20.272 28.8147 20.2527 28.428 20.214 28.08C20.1753 27.732 20.0207 27.4613 19.75 27.268C19.634 27.1907 19.3633 27.152 18.938 27.152C18.8607 27.2293 18.7253 27.268 18.532 27.268C18.3387 27.268 18.1647 27.3067 18.01 27.384C17.7007 27.4613 17.3527 27.5387 16.966 27.616C16.5793 27.6933 16.1927 27.7707 15.806 27.848C15.69 27.848 15.5547 27.8673 15.4 27.906C15.284 27.906 15.1487 27.906 14.994 27.906C14.414 28.0607 13.776 28.1573 13.08 28.196C12.4227 28.196 11.804 28.2733 11.224 28.428C10.9147 28.5053 10.6247 28.5827 10.354 28.66C10.122 28.6987 9.85133 28.7567 9.542 28.834C8.92333 29.0273 8.34333 29.2787 7.802 29.588C7.26067 29.8587 6.79667 30.2067 6.41 30.632C6.02333 31.0573 5.73333 31.5793 5.54 32.198C5.34667 32.778 5.26933 33.4933 5.308 34.344C5.308 34.7307 5.366 35.098 5.482 35.446C5.63667 35.7553 5.81067 36.0453 6.004 36.316C6.31333 36.7413 6.71933 37.1087 7.222 37.418C7.72467 37.6887 8.266 37.9207 8.846 38.114C9.03933 38.1527 9.23267 38.172 9.426 38.172C9.61933 38.172 9.81267 38.1913 10.006 38.23C10.2767 38.3073 10.6053 38.3653 10.992 38.404C11.4173 38.404 11.7653 38.3653 12.036 38.288C12.268 38.2107 12.5 38.1913 12.732 38.23C12.964 38.23 13.196 38.1913 13.428 38.114C13.7373 38.0367 14.0273 37.9787 14.298 37.94C14.6073 37.9013 14.8973 37.824 15.168 37.708C16.2893 37.244 17.2367 36.6833 18.01 36.026C18.822 35.3687 19.4407 34.4793 19.866 33.358ZM30.8343 0.645997C31.337 0.645997 31.859 0.645997 32.4003 0.645997C32.9803 0.645997 33.4057 0.78133 33.6763 1.052C33.8697 1.32266 33.9663 1.69 33.9663 2.154C34.005 2.57933 34.0243 3.024 34.0243 3.488V8.65V32.14V38.636C34.0243 39.1 34.0243 39.6027 34.0243 40.144C34.0243 40.6853 33.9277 41.1107 33.7343 41.42C33.6183 41.6133 33.4443 41.7293 33.2123 41.768C33.019 41.8067 32.7677 41.8647 32.4583 41.942H31.6463C31.221 41.942 30.815 41.942 30.4283 41.942C30.0417 41.9033 29.7517 41.768 29.5583 41.536C29.365 41.2267 29.249 40.84 29.2103 40.376C29.2103 39.912 29.2103 39.4287 29.2103 38.926V33.59V9.462V3.778C29.2103 3.35267 29.191 2.908 29.1523 2.444C29.1523 1.94133 29.249 1.55466 29.4423 1.284C29.597 1.052 29.887 0.858666 30.3123 0.703999C30.3897 0.665331 30.467 0.665331 30.5443 0.703999C30.6603 0.703999 30.757 0.684665 30.8343 0.645997ZM39.6318 0.645997C40.1344 0.645997 40.6564 0.645997 41.1978 0.645997C41.7778 0.645997 42.2031 0.78133 42.4738 1.052C42.6671 1.32266 42.7638 1.69 42.7638 2.154C42.8024 2.57933 42.8218 3.024 42.8218 3.488V8.65V32.14V38.636C42.8218 39.1 42.8218 39.6027 42.8218 40.144C42.8218 40.6853 42.7251 41.1107 42.5318 41.42C42.4158 41.6133 42.2418 41.7293 42.0098 41.768C41.8164 41.8067 41.5651 41.8647 41.2558 41.942H40.4438C40.0184 41.942 39.6124 41.942 39.2258 41.942C38.8391 41.9033 38.5491 41.768 38.3558 41.536C38.1624 41.2267 38.0464 40.84 38.0078 40.376C38.0078 39.912 38.0078 39.4287 38.0078 38.926V33.59V9.462V3.778C38.0078 3.35267 37.9884 2.908 37.9498 2.444C37.9498 1.94133 38.0464 1.55466 38.2398 1.284C38.3944 1.052 38.6844 0.858666 39.1098 0.703999C39.1871 0.665331 39.2644 0.665331 39.3418 0.703999C39.4578 0.703999 39.5544 0.684665 39.6318 0.645997ZM48.3132 0.645997C48.8545 0.645997 49.4152 0.665331 49.9952 0.703999C50.6139 0.703999 51.0392 0.858665 51.2712 1.168C51.4259 1.36133 51.5032 1.61266 51.5032 1.922C51.5419 2.23133 51.5612 2.57933 51.5612 2.966V6.04V18.626V20.83C51.5612 21.0233 51.5419 21.236 51.5032 21.468C51.5032 21.6613 51.5225 21.8547 51.5612 22.048V22.512C51.5612 22.8987 51.6192 23.2273 51.7352 23.498C51.7739 23.614 51.8319 23.7107 51.9092 23.788C51.9865 23.8267 52.0639 23.8847 52.1412 23.962C52.4892 24.0007 52.7405 23.962 52.8952 23.846C53.0885 23.6913 53.2819 23.5367 53.4752 23.382C53.6685 23.2273 53.8232 23.0727 53.9392 22.918C54.0552 22.7633 54.1905 22.628 54.3452 22.512C54.6545 22.3187 54.9252 22.106 55.1572 21.874C55.3892 21.6033 55.6405 21.3327 55.9112 21.062C56.1045 20.8687 56.2785 20.6947 56.4332 20.54C56.6265 20.3853 56.8199 20.2113 57.0132 20.018C57.1292 19.9407 57.2259 19.844 57.3032 19.728C57.4192 19.612 57.5159 19.5153 57.5932 19.438C57.6705 19.3607 57.7285 19.322 57.7672 19.322C57.8059 19.2833 57.8639 19.2253 57.9412 19.148C58.0959 18.9547 58.2505 18.8 58.4052 18.684C58.5599 18.5293 58.7339 18.3747 58.9272 18.22C59.0045 18.104 59.1012 17.988 59.2172 17.872C59.3332 17.756 59.4492 17.64 59.5652 17.524C59.9132 17.2533 60.2225 16.9633 60.4932 16.654C60.8025 16.3447 61.1312 16.0547 61.4792 15.784C61.5952 15.668 61.7112 15.552 61.8272 15.436C61.9432 15.2813 62.0592 15.146 62.1752 15.03C62.6779 14.6433 63.1225 14.218 63.5092 13.754C63.8959 13.29 64.3599 12.884 64.9012 12.536C65.2105 12.3427 65.5972 12.2267 66.0612 12.188C66.5639 12.1107 67.1052 12.072 67.6852 12.072C67.8785 12.072 68.0719 12.072 68.2652 12.072C68.4972 12.0333 68.6905 12.0333 68.8452 12.072H69.4832C69.7925 12.1493 70.0439 12.2267 70.2372 12.304C70.4305 12.3427 70.5272 12.536 70.5272 12.884C70.4499 12.9613 70.3919 13.058 70.3532 13.174C70.3532 13.29 70.3145 13.3867 70.2372 13.464C70.1599 13.58 70.0439 13.696 69.8892 13.812C69.7732 13.928 69.6572 14.0247 69.5412 14.102C69.4639 14.1793 69.4059 14.2373 69.3672 14.276C69.3672 14.3147 69.3285 14.3727 69.2512 14.45C69.0965 14.5273 68.9612 14.6433 68.8452 14.798C68.7292 14.914 68.6132 15.0107 68.4972 15.088C68.3812 15.204 68.2652 15.32 68.1492 15.436C68.0332 15.5133 67.9365 15.61 67.8592 15.726C67.5499 15.958 67.2599 16.2093 66.9892 16.48C66.7185 16.7507 66.4285 17.002 66.1192 17.234C66.0419 17.3113 65.9452 17.408 65.8292 17.524C65.7132 17.64 65.6165 17.756 65.5392 17.872C65.1525 18.1427 64.8045 18.452 64.4952 18.8C64.1859 19.1093 63.8379 19.3993 63.4512 19.67C63.3739 19.786 63.2772 19.902 63.1612 20.018C63.0452 20.0953 62.9485 20.192 62.8712 20.308C62.6779 20.4627 62.5039 20.6173 62.3492 20.772C62.1945 20.9267 62.0205 21.0813 61.8272 21.236C61.6339 21.3907 61.4405 21.5647 61.2472 21.758C61.0925 21.9127 60.9572 22.0867 60.8412 22.28C60.7639 22.3573 60.6672 22.4927 60.5512 22.686C60.4352 22.8793 60.4159 23.0727 60.4932 23.266C60.5705 23.6913 60.7059 24.0393 60.8992 24.31C61.1312 24.5807 61.3439 24.8707 61.5372 25.18C61.8465 25.6053 62.1365 26.05 62.4072 26.514C62.6779 26.9393 62.9485 27.3647 63.2192 27.79C64.3019 29.3753 65.3652 30.9413 66.4092 32.488C67.4532 34.0347 68.4972 35.62 69.5412 37.244C69.7732 37.5533 69.9859 37.8627 70.1792 38.172C70.3725 38.4813 70.5852 38.7907 70.8172 39.1C70.9719 39.332 71.1265 39.564 71.2812 39.796C71.4359 39.9893 71.5712 40.2213 71.6872 40.492C71.8419 40.8013 71.8999 41.0913 71.8612 41.362C71.8225 41.594 71.6485 41.7487 71.3392 41.826C71.1459 41.9033 70.9139 41.942 70.6432 41.942C70.3725 41.942 70.1212 41.942 69.8892 41.942C69.3479 41.942 68.7872 41.9613 68.2072 42C67.6659 42 67.2212 41.9227 66.8732 41.768C66.3705 41.536 65.9065 41.0913 65.4812 40.434C65.0945 39.738 64.7465 39.1773 64.4372 38.752C63.5479 37.3987 62.6779 36.084 61.8272 34.808C60.9765 33.4933 60.1065 32.1787 59.2172 30.864C58.8692 30.3227 58.5212 29.8007 58.1732 29.298C57.8639 28.7567 57.5159 28.2153 57.1292 27.674C57.0132 27.5193 56.8392 27.3453 56.6072 27.152C56.4139 26.9587 56.1625 26.9007 55.8532 26.978C55.5439 27.0553 55.2732 27.21 55.0412 27.442C54.8479 27.6353 54.6352 27.8287 54.4032 28.022C54.2099 28.1767 54.0165 28.3507 53.8232 28.544C53.6685 28.7373 53.4945 28.9113 53.3012 29.066C52.8759 29.3753 52.5085 29.7233 52.1992 30.11C51.9285 30.458 51.7352 30.922 51.6192 31.502C51.6192 31.6567 51.5999 31.8113 51.5612 31.966C51.5612 32.1207 51.5612 32.2753 51.5612 32.43C51.5225 32.6233 51.5032 32.8553 51.5032 33.126C51.5419 33.3967 51.5612 33.648 51.5612 33.88V38.578C51.5612 39.1193 51.5612 39.6607 51.5612 40.202C51.5612 40.7433 51.4645 41.1687 51.2712 41.478C51.0779 41.7487 50.7492 41.9033 50.2852 41.942C49.8212 41.942 49.3379 41.942 48.8352 41.942C48.6032 41.942 48.3905 41.942 48.1972 41.942C48.0039 41.942 47.8105 41.9033 47.6172 41.826C47.1532 41.6713 46.8825 41.3427 46.8052 40.84C46.7665 40.3373 46.7472 39.7573 46.7472 39.1V32.372V9.172V3.72C46.7472 3.29467 46.7279 2.85 46.6892 2.386C46.6892 1.922 46.7859 1.55466 46.9792 1.284C47.1339 1.01333 47.4239 0.819998 47.8492 0.703999C47.9265 0.665331 48.0039 0.665331 48.0812 0.703999C48.1585 0.703999 48.2359 0.684665 48.3132 0.645997ZM73.3434 6.272C73.034 6.04 72.86 5.634 72.8214 5.054C72.8214 4.43533 72.8214 3.836 72.8214 3.256C72.8214 2.94666 72.8214 2.618 72.8214 2.27C72.8214 1.922 72.8794 1.632 72.9954 1.4C73.15 1.09067 73.4594 0.858666 73.9234 0.703999C74.0007 0.665331 74.078 0.665331 74.1554 0.703999C74.2714 0.703999 74.368 0.684665 74.4454 0.645997C75.1027 0.645997 75.7214 0.665331 76.3014 0.703999C76.8814 0.742665 77.268 0.974665 77.4614 1.4C77.5774 1.632 77.6354 1.922 77.6354 2.27C77.6354 2.57933 77.6354 2.908 77.6354 3.256C77.6354 3.952 77.616 4.60933 77.5774 5.228C77.5774 5.84667 77.326 6.25266 76.8234 6.446C76.63 6.52333 76.4174 6.562 76.1854 6.562C75.992 6.562 75.7794 6.562 75.5474 6.562C75.122 6.562 74.716 6.562 74.3294 6.562C73.9427 6.562 73.614 6.46533 73.3434 6.272ZM77.6354 39.158C77.6354 39.5447 77.6354 39.9507 77.6354 40.376C77.674 40.7627 77.5967 41.072 77.4034 41.304C77.2874 41.536 77.1134 41.6907 76.8814 41.768C76.6494 41.8067 76.3787 41.8647 76.0694 41.942H75.1994C74.6967 41.942 74.252 41.9227 73.8654 41.884C73.5174 41.8067 73.2467 41.6133 73.0534 41.304C72.8987 41.072 72.8214 40.782 72.8214 40.434C72.8214 40.0473 72.8214 39.68 72.8214 39.332V14.798C72.8214 14.3727 72.8214 13.9667 72.8214 13.58C72.8214 13.1547 72.918 12.826 73.1114 12.594C73.2274 12.4007 73.382 12.2847 73.5754 12.246C73.7687 12.2073 73.9814 12.1493 74.2134 12.072C74.2907 12.072 74.368 12.0913 74.4454 12.13C74.5614 12.13 74.658 12.1107 74.7354 12.072C75.238 12.072 75.7407 12.0913 76.2434 12.13C76.7847 12.13 77.152 12.2847 77.3454 12.594C77.5387 12.826 77.6354 13.1353 77.6354 13.522C77.6354 13.87 77.6354 14.2373 77.6354 14.624V39.158ZM83.2428 0.645997C83.7454 0.645997 84.2674 0.645997 84.8088 0.645997C85.3888 0.645997 85.8141 0.78133 86.0848 1.052C86.2781 1.32266 86.3748 1.69 86.3748 2.154C86.4134 2.57933 86.4328 3.024 86.4328 3.488V8.65V32.14V38.636C86.4328 39.1 86.4328 39.6027 86.4328 40.144C86.4328 40.6853 86.3361 41.1107 86.1428 41.42C86.0268 41.6133 85.8528 41.7293 85.6208 41.768C85.4274 41.8067 85.1761 41.8647 84.8668 41.942H84.0548C83.6294 41.942 83.2234 41.942 82.8368 41.942C82.4501 41.9033 82.1601 41.768 81.9668 41.536C81.7734 41.2267 81.6574 40.84 81.6188 40.376C81.6188 39.912 81.6188 39.4287 81.6188 38.926V33.59V9.462V3.778C81.6188 3.35267 81.5994 2.908 81.5608 2.444C81.5608 1.94133 81.6574 1.55466 81.8508 1.284C82.0054 1.052 82.2954 0.858666 82.7208 0.703999C82.7981 0.665331 82.8754 0.665331 82.9528 0.703999C83.0688 0.703999 83.1654 0.684665 83.2428 0.645997ZM92.0402 0.645997C92.5429 0.645997 93.0649 0.645997 93.6062 0.645997C94.1862 0.645997 94.6115 0.78133 94.8822 1.052C95.0755 1.32266 95.1722 1.69 95.1722 2.154C95.2109 2.57933 95.2302 3.024 95.2302 3.488V8.65V32.14V38.636C95.2302 39.1 95.2302 39.6027 95.2302 40.144C95.2302 40.6853 95.1335 41.1107 94.9402 41.42C94.8242 41.6133 94.6502 41.7293 94.4182 41.768C94.2249 41.8067 93.9735 41.8647 93.6642 41.942H92.8522C92.4269 41.942 92.0209 41.942 91.6342 41.942C91.2475 41.9033 90.9575 41.768 90.7642 41.536C90.5709 41.2267 90.4549 40.84 90.4162 40.376C90.4162 39.912 90.4162 39.4287 90.4162 38.926V33.59V9.462V3.778C90.4162 3.35267 90.3969 2.908 90.3582 2.444C90.3582 1.94133 90.4549 1.55466 90.6482 1.284C90.8029 1.052 91.0929 0.858666 91.5182 0.703999C91.5955 0.665331 91.6729 0.665331 91.7502 0.703999C91.8662 0.703999 91.9629 0.684665 92.0402 0.645997ZM113.482 0.936C113.868 0.936 114.236 0.974666 114.584 1.052C114.932 1.09066 115.183 1.20666 115.338 1.4C115.57 1.70933 115.686 2.11533 115.686 2.618C115.686 3.082 115.686 3.58466 115.686 4.126V9.926V34.634V39.158C115.686 39.5447 115.686 39.9507 115.686 40.376C115.724 40.7627 115.666 41.072 115.512 41.304C115.318 41.6133 115.028 41.8067 114.642 41.884C114.294 41.9227 113.868 41.942 113.366 41.942H112.496C112.186 41.8647 111.916 41.8067 111.684 41.768C111.452 41.6907 111.258 41.536 111.104 41.304C110.949 41.072 110.872 40.782 110.872 40.434C110.872 40.0473 110.872 39.6607 110.872 39.274V35.04V14.392C110.794 14.044 110.736 13.754 110.698 13.522C110.698 13.2513 110.582 13.0193 110.35 12.826C110.079 12.6327 109.731 12.536 109.306 12.536C108.919 12.4973 108.494 12.478 108.03 12.478H103.622C102.964 12.478 102.326 12.478 101.708 12.478C101.089 12.4393 100.664 12.2073 100.432 11.782C100.354 11.666 100.316 11.55 100.316 11.434C100.316 11.2793 100.296 11.1053 100.258 10.912C100.18 10.448 100.2 10.0227 100.316 9.636C100.47 9.24933 100.683 8.97867 100.954 8.824C101.263 8.63067 101.727 8.534 102.346 8.534C102.964 8.534 103.486 8.476 103.912 8.36C104.105 8.32133 104.318 8.302 104.55 8.302C104.782 8.26333 105.014 8.20533 105.246 8.128C105.826 7.93466 106.386 7.74133 106.928 7.548C107.469 7.316 107.991 7.04533 108.494 6.736C109.035 6.388 109.499 5.982 109.886 5.518C110.272 5.054 110.64 4.55133 110.988 4.01C111.22 3.62333 111.394 3.198 111.51 2.734C111.664 2.27 111.858 1.864 112.09 1.516C112.283 1.284 112.554 1.12933 112.902 1.052C112.979 1.01333 113.076 0.993999 113.192 0.993999C113.308 0.993999 113.404 0.974666 113.482 0.936ZM130.456 3.024C131.036 3.024 131.616 3.04333 132.196 3.082C132.776 3.082 133.182 3.23667 133.414 3.546C133.607 3.778 133.704 4.10667 133.704 4.532C133.743 4.91866 133.762 5.32467 133.762 5.75V9.114C133.762 9.42333 133.743 9.752 133.704 10.1C133.704 10.4093 133.743 10.68 133.82 10.912C133.975 11.4533 134.323 11.8013 134.864 11.956C135.057 11.9947 135.231 12.014 135.386 12.014C135.579 12.014 135.773 12.014 135.966 12.014C136.391 12.014 136.913 12.014 137.532 12.014C138.151 11.9753 138.595 12.014 138.866 12.13C139.214 12.362 139.446 12.594 139.562 12.826C139.639 12.9807 139.678 13.1547 139.678 13.348C139.678 13.5413 139.678 13.7347 139.678 13.928C139.678 14.3533 139.659 14.7593 139.62 15.146C139.581 15.494 139.446 15.7647 139.214 15.958C138.982 16.1513 138.653 16.2673 138.228 16.306C137.841 16.306 137.416 16.306 136.952 16.306C136.527 16.2673 136.101 16.248 135.676 16.248C135.251 16.248 134.883 16.306 134.574 16.422C134.303 16.538 134.11 16.7313 133.994 17.002C133.878 17.2727 133.801 17.6013 133.762 17.988C133.723 18.336 133.704 18.7227 133.704 19.148C133.743 19.5347 133.762 19.9213 133.762 20.308V31.792C133.762 32.6427 133.743 33.5513 133.704 34.518C133.704 35.446 133.878 36.1613 134.226 36.664C134.419 36.9733 134.671 37.186 134.98 37.302C135.289 37.418 135.657 37.5147 136.082 37.592C136.198 37.6307 136.314 37.65 136.43 37.65C136.585 37.6113 136.72 37.6113 136.836 37.65H137.59C137.977 37.65 138.325 37.6887 138.634 37.766C138.982 37.8047 139.233 37.94 139.388 38.172C139.465 38.288 139.523 38.5007 139.562 38.81C139.639 39.0807 139.678 39.3707 139.678 39.68C139.717 39.9893 139.717 40.2987 139.678 40.608C139.639 40.8787 139.562 41.0913 139.446 41.246C139.291 41.5167 139.001 41.71 138.576 41.826C138.267 41.9033 137.919 41.942 137.532 41.942C137.145 41.9033 136.797 41.884 136.488 41.884C136.256 41.884 136.024 41.9033 135.792 41.942C135.56 41.942 135.347 41.9227 135.154 41.884H134.458C134.265 41.8453 134.071 41.826 133.878 41.826C133.723 41.7873 133.549 41.768 133.356 41.768C132.583 41.5747 131.906 41.362 131.326 41.13C130.785 40.898 130.321 40.492 129.934 39.912C129.393 39.1387 129.083 38.172 129.006 37.012C128.929 35.8133 128.89 34.5373 128.89 33.184V17.988C128.774 17.4853 128.658 17.118 128.542 16.886C128.465 16.654 128.194 16.4607 127.73 16.306C127.575 16.2673 127.421 16.2673 127.266 16.306C127.111 16.3447 126.957 16.3253 126.802 16.248H125.874C125.371 16.248 124.946 16.2093 124.598 16.132C124.289 16.016 124.076 15.784 123.96 15.436C123.883 15.2813 123.825 15.1073 123.786 14.914C123.786 14.7207 123.786 14.5273 123.786 14.334C123.786 13.7927 123.825 13.348 123.902 13C123.979 12.6133 124.211 12.3233 124.598 12.13C125.023 11.9753 125.565 11.9367 126.222 12.014C126.918 12.0913 127.498 12.0527 127.962 11.898C128.31 11.7047 128.581 11.434 128.774 11.086C128.851 10.854 128.89 10.564 128.89 10.216C128.89 9.868 128.89 9.53933 128.89 9.23V5.634C128.89 5.32466 128.89 5.01533 128.89 4.706C128.89 4.358 128.929 4.068 129.006 3.836C129.161 3.52667 129.451 3.27533 129.876 3.082C129.992 3.082 130.089 3.082 130.166 3.082C130.282 3.04333 130.379 3.024 130.456 3.024Z" fill="#848484"/>
</svg>
