<svg width="121" height="150" viewBox="0 0 121 150" fill="none" xmlns="http://www.w3.org/2000/svg">
<path d="M26.8056 63.3374H24.2837L26.8844 23.9324L15.4569 63.3374H10.8071L27.9089 4.22983H34.1349L29.8004 43.9501L42.2524 4.22983H48.5572L40.4397 63.3374H35.79L41.0702 24.2476L26.8056 63.3374ZM68.3619 63.1798H63.8698L64.3426 53.8802H50.3144L46.9256 63.1798H42.3546L64.2638 4.15102H71.5143L68.3619 63.1798ZM51.733 49.6245L64.7367 49.7033L66.6281 9.98297L51.733 49.6245ZM79.6379 48.2847H77.5889L74.3577 63.4951H69.9443L82.5539 4.15102H88.1494C89.9883 4.15102 91.512 4.30864 92.7204 4.62388C93.9288 4.88658 94.9271 5.3069 95.7152 5.88484C96.5033 6.41024 97.0812 7.06699 97.449 7.8551C97.8694 8.6432 98.1583 9.56265 98.3159 10.6134C98.6837 12.5574 98.8151 14.7904 98.71 17.3123C98.6575 19.7817 98.3948 22.3299 97.9219 24.9569C97.5016 27.5839 96.8711 30.1846 96.0304 32.7591C95.2423 35.281 94.2966 37.5928 93.1933 39.6944C92.0899 41.796 90.8553 43.5561 89.4892 44.9747C88.1757 46.3933 86.7834 47.2864 85.3123 47.6542L87.9918 63.4951H82.3963L79.6379 48.2847ZM88.0706 8.87962H85.8639L78.4558 43.8713H80.8201C82.1861 43.8713 83.3683 43.6874 84.3665 43.3197C85.3648 42.8993 86.2317 42.3477 86.9673 41.6646C87.7028 40.9291 88.3333 40.0884 88.8587 39.1427C89.4367 38.1445 89.9621 37.0674 90.4349 35.9115C91.1179 34.1777 91.7484 32.3125 92.3264 30.316C92.9043 28.2669 93.3772 26.2441 93.745 24.2476C94.1127 22.2511 94.3492 20.3334 94.4542 18.4945C94.6119 16.603 94.6119 14.948 94.4542 13.5294C94.3492 12.8464 94.1915 12.2159 93.9814 11.638C93.7712 11.06 93.4297 10.5609 92.9569 10.1406C92.5365 9.72027 91.9323 9.40503 91.1442 9.19486C90.3561 8.9847 89.3316 8.87962 88.0706 8.87962ZM117.618 63.1798H113.126L113.599 53.8802H99.5707L96.1819 63.1798H91.6109L113.52 4.15102H120.771L117.618 63.1798ZM100.989 49.6245L113.993 49.7033L115.884 9.98297L100.989 49.6245Z" fill="#848484"/>
<path d="M37.2454 95.262C36.4236 99.0546 35.3491 102.594 34.0217 105.881C32.7575 109.105 31.3037 111.886 29.6603 114.225C28.08 116.564 26.3734 118.397 24.5403 119.724C22.7704 121.051 20.969 121.715 19.1359 121.715H12.5938L8.80119 139.919H3.01755L18.093 68.809H30.4188C32.2518 68.809 33.8005 69.4727 35.0646 70.8001C36.3288 72.1274 37.2454 73.9605 37.8142 76.2993C38.3831 78.638 38.636 81.4192 38.5728 84.6429C38.5096 87.8666 38.0671 91.4063 37.2454 95.262ZM28.9966 74.403H22.644L13.7315 116.595H20.084C21.7275 116.595 23.3077 115.552 24.8247 113.466C26.405 111.38 27.7956 108.789 28.9966 105.692C30.2607 102.531 31.2721 99.1494 32.0306 95.5465C32.7891 91.8803 33.2316 88.4986 33.358 85.4014C33.4844 82.2409 33.2 79.6177 32.5047 77.5318C31.8094 75.4459 30.64 74.403 28.9966 74.403ZM60.5555 139.825H55.1511L55.72 128.637H38.8431L34.7661 139.825H29.2669L55.6252 68.809H64.3481L60.5555 139.825ZM40.5498 123.517L56.1941 123.611L58.4696 75.8252L40.5498 123.517ZM77.9139 68.9038H83.6027L68.4325 140.014H62.7436L77.9139 68.9038ZM110.378 68.9038H115.972L100.802 140.014H93.8804L90.0878 85.591L78.5205 140.014H72.8317L88.0019 68.9038H94.1648L98.2418 125.697L110.378 68.9038Z" fill="#848484"/>
</svg>
