<svg width="123" height="30" viewBox="0 0 123 30" fill="none" xmlns="http://www.w3.org/2000/svg">
<path d="M38.834 0.388168C37.8728 0.580416 36.2579 1.23405 35.2198 1.81079C34.1816 2.38754 32.7205 3.54103 31.99 4.38692C31.221 5.23281 30.1829 6.88613 29.6446 8.03962C28.7218 9.9621 28.6449 10.6157 28.6449 14.9605C28.6449 19.5745 28.6833 19.8821 29.8368 22.2659C30.6058 23.8424 31.7593 25.3803 32.9128 26.4185C33.9509 27.3413 35.7581 28.4563 36.9115 28.8793C38.5264 29.5329 39.8721 29.7251 42.4867 29.7251C45.4089 29.7251 46.2932 29.5714 48.2541 28.687C49.523 28.1103 51.2917 26.9183 52.176 26.034C53.0603 25.1112 54.2138 23.4963 54.7521 22.4582C55.2904 21.3816 55.9056 19.2284 56.1363 17.652C56.4823 15.4988 56.4823 14.0762 56.1363 12.0768C55.9056 10.5773 55.2904 8.50101 54.7521 7.46288C54.2138 6.38629 53.2141 4.96366 52.5605 4.23312C51.8684 3.54103 50.6765 2.54134 49.9075 2.04149C49.1 1.54165 47.4467 0.84956 46.2548 0.541964C45.0244 0.234368 43.2557 -0.0347763 42.2945 0.00367323C41.3332 0.0421227 39.7952 0.195921 38.834 0.388168ZM0 14.9605V29.1869H5.76743C5.76743 10.3466 5.76743 10.9233 5.76743 10.9233C5.76743 10.9233 9.03564 15.7295 12.3038 20.4204L17.6868 29.1869H23.8387V0.734212H18.0328L17.879 19.6898L6.34417 0.734212H0V14.9605ZM60.4426 14.8452L60.558 28.9946L66.9022 29.1869V0.734212H60.3657L60.4426 14.8452ZM72.6311 14.9221V29.1484H78.7831V17.998C85.281 17.998 86.8575 18.1903 87.6264 18.5748C88.2801 18.9208 89.0491 19.6514 89.3182 20.2281C89.6258 20.8049 90.0488 22.8811 90.2795 24.8421C90.5102 26.803 90.8178 28.5717 90.8947 28.7639C91.01 28.9946 92.4711 29.1484 94.1629 29.1484C96.9312 29.1484 97.2388 29.11 97.0081 28.4948C96.8928 28.1103 96.5852 26.3416 96.3929 24.5345C96.1622 22.7658 95.8546 20.6511 95.6624 19.8436C95.4701 19.0362 94.8934 17.8827 94.3551 17.2291C93.8553 16.6139 93.1632 16.0756 92.8171 16.0756C92.5095 16.0756 92.2404 15.9218 92.2404 15.6911C92.2404 15.4988 92.5095 15.3066 92.8171 15.3066C93.1632 15.3066 93.8937 14.7683 94.4705 14.0762C95.0857 13.3841 95.7777 12.1153 96.0853 11.2694C96.3545 10.4235 96.5083 8.92396 96.3929 7.80892C96.2776 6.77078 95.8931 5.34816 95.4701 4.65607C95.0857 3.96398 94.1629 2.96428 93.3939 2.46444C92.6633 2.00305 91.356 1.38786 90.5102 1.15716C89.5874 0.888012 85.704 0.734212 80.8209 0.734212L72.6311 0.69576V14.9221ZM101.084 14.9221V29.1484H123L122.808 23.9577L107.62 23.7655V16.8446H121.462L121.27 12.0384L107.62 11.8461V5.6942H122.616V0.69576H101.084V14.9221Z" fill="#848484"/>
<path d="M40.5643 5.42504C39.7184 5.61729 38.488 6.15558 37.8728 6.65542C37.2576 7.11682 36.2964 8.38565 35.7581 9.42379C34.9507 11.0002 34.7969 11.8461 34.7969 14.8067C34.7969 17.9211 34.9122 18.4979 35.9504 20.5357C36.8731 22.3044 37.4883 22.9965 38.8341 23.727C40.2567 24.4575 41.0257 24.6113 42.9482 24.496C44.6015 24.4191 45.6396 24.15 46.4086 23.5732C46.9854 23.1503 47.8697 22.189 48.3695 21.4585C48.8694 20.7279 49.4461 19.4591 49.6768 18.6132C49.8691 17.7673 49.9844 15.6911 49.9075 13.9993C49.7922 11.923 49.4846 10.4235 48.9463 9.38534C48.5233 8.53945 47.639 7.38596 46.9469 6.80922C46.2933 6.19402 45.2936 5.65574 44.7168 5.54039C44.1017 5.42504 43.2942 5.27124 42.8713 5.19434C42.4483 5.11745 41.4102 5.2328 40.5643 5.42504ZM78.86 9.53914L78.8216 13.4225C85.5887 13.4225 87.3189 13.2303 88.2417 12.8458C88.9722 12.5382 89.7412 11.923 89.9719 11.5001C90.2026 11.0771 90.3564 10.1159 90.3564 9.38534C90.3564 8.501 90.0488 7.65511 89.4336 7.00146C88.5108 5.96333 88.3955 5.92489 83.7047 5.80954L78.8985 5.65573L78.86 9.53914Z" fill="#1D1D1D"/>
</svg>
