<svg width="129" height="120" viewBox="0 0 129 120" fill="none" xmlns="http://www.w3.org/2000/svg">
<path d="M9.87867 65H0.949022V3.11134H15.1834C25.174 3.11134 29.241 8.50449 29.241 22.9157C29.241 37.3269 25.2624 42.6317 15.1834 42.6317H9.87867V65ZM9.87867 11.0685V34.6746H14.4761C19.0736 34.6746 20.665 32.2874 20.665 22.8273C20.665 13.4556 19.0736 11.0685 14.4761 11.0685H9.87867ZM46.0103 65.8841C36.9038 65.8841 32.9253 59.6068 32.9253 42.4548C32.9253 25.3028 36.9038 19.0256 46.0103 19.0256C55.1168 19.0256 59.0953 25.3028 59.0953 42.4548C59.0953 59.6068 55.1168 65.8841 46.0103 65.8841ZM40.9708 42.4548C40.9708 55.0094 42.3854 58.2807 46.0103 58.2807C49.6352 58.2807 51.0498 55.0094 51.0498 42.4548C51.0498 29.8119 49.6352 26.629 46.0103 26.629C42.3854 26.629 40.9708 29.9003 40.9708 42.4548ZM64.8221 54.921V0.458969H73.2213V53.9485C73.2213 57.3081 73.6634 57.927 76.6694 57.927H77.7303V65.3536C76.1389 65.7073 74.9011 65.8841 73.3981 65.8841C67.0324 65.8841 64.8221 63.0549 64.8221 54.921ZM83.3853 54.921V0.458969H91.7844V53.9485C91.7844 57.3081 92.2265 57.927 95.2325 57.927H96.2935V65.3536C94.7021 65.7073 93.4643 65.8841 91.9613 65.8841C85.5956 65.8841 83.3853 63.0549 83.3853 54.921ZM110.477 65.1768L97.304 19.9097H105.792L114.014 50.412H114.102L120.38 19.9097H128.779L116.224 75.1674C114.456 83.0361 111.804 85.3348 104.996 85.3348C104.289 85.3348 103.758 85.3348 102.874 85.2464V77.7314C107.383 77.7314 107.56 77.2893 108.621 72.8687L110.477 65.1768ZM5.20282 95.9337C5.20282 85.3237 7.1721 81.4655 12.3565 81.4655C16.7774 81.4655 18.5859 84.2386 18.6663 91.111H14.8081C14.7679 86.6098 14.1651 85.163 12.3565 85.163C9.98536 85.163 9.22176 87.6547 9.22176 95.9337C9.22176 104.213 9.94517 106.704 12.3565 106.704C14.1651 106.704 14.7679 105.258 14.8081 100.756H18.6663C18.5859 107.629 16.7774 110.402 12.3565 110.402C7.1721 110.402 5.20282 106.544 5.20282 95.9337ZM20.6195 99.7517C20.6195 92.3167 22.5084 89.1015 26.7685 89.1015C30.8678 89.1015 32.5156 91.9952 32.5156 99.6311C32.5156 100.314 32.4754 100.837 32.4754 101.359H24.3169C24.4375 105.66 25.2413 106.946 26.8087 106.946C28.2153 106.946 28.8985 105.901 29.0191 103.57H32.5558C32.2343 108.232 30.3454 110.402 26.8087 110.402C22.5084 110.402 20.6195 107.267 20.6195 99.7517ZM26.7283 92.5578C25.1207 92.5578 24.3973 94.2056 24.3169 98.2245H28.8182C28.8583 94.085 28.2555 92.5578 26.7283 92.5578ZM35.1973 110V89.5034H38.0507L38.8947 91.7138C39.7789 89.7446 40.9845 89.1015 43.0744 89.1015V92.9195C42.7931 92.8793 42.5519 92.8793 42.3108 92.8793C40.1808 92.8793 39.0153 93.6831 39.0153 96.8581V110H35.1973ZM44.3642 99.7517C44.3642 92.3167 46.2531 89.1015 50.5132 89.1015C54.6125 89.1015 56.2603 91.9952 56.2603 99.6311C56.2603 100.314 56.2201 100.837 56.2201 101.359H48.0616C48.1822 105.66 48.986 106.946 50.5534 106.946C51.96 106.946 52.6432 105.901 52.7638 103.57H56.3005C55.979 108.232 54.0901 110.402 50.5534 110.402C46.2531 110.402 44.3642 107.267 44.3642 99.7517ZM50.473 92.5578C48.8654 92.5578 48.142 94.2056 48.0616 98.2245H52.5629C52.603 94.085 52.0002 92.5578 50.473 92.5578ZM58.942 110V89.5034H61.7954L62.5992 91.5933C63.5638 89.9053 64.6891 89.1015 66.377 89.1015C68.1051 89.1015 69.1099 89.9455 69.6725 91.9148C70.5567 90.0661 72.0437 89.1015 73.812 89.1015C76.5047 89.1015 77.63 91.3119 77.63 96.2954V110H73.812L73.8522 96.7777C73.8522 94.0046 73.4101 92.9597 72.0839 92.9597C70.7175 92.9597 70.1146 94.085 70.1146 96.7375V110H66.4976V96.7777C66.4976 94.0046 66.0555 92.9597 64.7292 92.9597C63.3628 92.9597 62.76 94.085 62.76 96.7777V110H58.942ZM86.0274 110.402C81.8879 110.402 80.0794 107.548 80.0794 99.7517C80.0794 91.955 81.8879 89.1015 86.0274 89.1015C90.1669 89.1015 91.9754 91.955 91.9754 99.7517C91.9754 107.548 90.1669 110.402 86.0274 110.402ZM83.7366 99.7517C83.7366 105.459 84.3796 106.946 86.0274 106.946C87.6752 106.946 88.3182 105.459 88.3182 99.7517C88.3182 94.0046 87.6752 92.5578 86.0274 92.5578C84.3796 92.5578 83.7366 94.0448 83.7366 99.7517ZM94.5786 110V89.5034H97.4321L98.2359 91.5933C99.2004 89.9053 100.446 89.1015 102.094 89.1015C104.907 89.1015 106.234 91.3923 106.234 96.2954V110H102.456V96.7777C102.456 94.0046 101.933 92.9597 100.527 92.9597C99.0397 92.9597 98.3966 94.085 98.3966 96.7777V110H94.5786ZM113.409 110.08L107.421 89.5034H111.279L115.017 103.369H115.057L117.91 89.5034H121.728L116.021 114.622C115.217 118.199 114.012 119.244 110.917 119.244C110.596 119.244 110.355 119.244 109.953 119.203V115.787C112.002 115.787 112.083 115.586 112.565 113.577L113.409 110.08Z" fill="#848484"/>
</svg>
