<svg width="122" height="43" viewBox="0 0 122 43" fill="none" xmlns="http://www.w3.org/2000/svg">
<path d="M0.396431 2.27077H20.0628V8.08923H13.3134V43H7.14585V8.08923H0.396431V2.27077ZM24.819 2.27077H42.3325V8.08923H30.9865V19.4352H40.0052V25.2537H30.9865V37.1815H42.3325V43H24.819V2.27077ZM47.4905 2.27077H65.0041V8.08923H53.6581V19.4352H62.6767V25.2537H53.6581V37.1815H65.0041V43H47.4905V2.27077ZM70.1621 2.27077H76.9697L84.8246 29.6175V2.27077H90.8758V43H84.3591L76.2133 16.9333V43H70.1621V2.27077ZM115.946 43H110.826V11.813H115.946V43ZM105.24 3.37628C105.24 2.36774 105.512 1.65013 106.055 1.22345C106.598 0.75797 107.238 0.525232 107.975 0.525232C108.712 0.525232 109.352 0.75797 109.895 1.22345C110.438 1.65013 110.709 2.36774 110.709 3.37628C110.709 4.34602 110.438 5.08303 109.895 5.58729C109.352 6.05277 108.712 6.28551 107.975 6.28551C107.238 6.28551 106.598 6.05277 106.055 5.58729C105.512 5.08303 105.24 4.34602 105.24 3.37628ZM116.179 3.37628C116.179 2.36774 116.431 1.65013 116.935 1.22345C117.478 0.75797 118.118 0.525232 118.855 0.525232C119.592 0.525232 120.232 0.75797 120.775 1.22345C121.318 1.65013 121.59 2.36774 121.59 3.37628C121.59 4.34602 121.318 5.08303 120.775 5.58729C120.232 6.05277 119.592 6.28551 118.855 6.28551C118.118 6.28551 117.478 6.05277 116.935 5.58729C116.431 5.08303 116.179 4.34602 116.179 3.37628Z" fill="#848484"/>
</svg>
