<svg width="185" height="93" viewBox="0 0 185 93" fill="none" xmlns="http://www.w3.org/2000/svg">
<path d="M38.5894 19.0109H37.348C38.2116 13.0741 37.456 12.1026 31.735 12.1026H29.0365L19.6995 39.6819C18.3502 43.6218 18.8359 44.3234 22.8838 44.5393L22.506 45.5647H7.87979L8.20361 44.5393C12.4673 44.2694 13.2229 43.6757 14.7881 39.0882L23.9092 12.1026H21.2107C15.5977 12.1026 14.0865 13.0741 10.8482 19.0109H9.66083L13.061 9.83583H41.3959L38.5894 19.0109ZM65.5931 45.5647H51.6685L51.9923 44.5393C55.9862 44.2694 56.6878 43.6218 58.253 39.0882L64.2978 21.2777L43.5189 37.6849L42.8712 39.6819C41.5759 43.5138 41.9537 44.2155 45.6237 44.5393L45.2459 45.5647H31.3214L31.6452 44.5393C35.6391 44.2694 36.3947 43.6218 37.9598 39.0882L45.8396 15.7187C47.1349 11.8328 46.8111 11.2391 43.0871 10.8613L43.4109 9.83583H57.3895L57.0117 10.8613C53.0178 11.2391 52.2622 11.8328 50.9669 15.7187L44.6523 34.2308L65.4312 17.8236L66.1328 15.7187C67.4281 11.8328 67.1043 11.2391 63.3803 10.8613L63.7581 9.83583H77.6826L77.3588 10.8613C73.3649 11.2391 72.5553 11.8328 71.26 15.7187L63.1644 39.6819C61.8691 43.5138 62.3008 44.2155 65.9709 44.5393L65.5931 45.5647ZM110.116 45.5647H96.0838L96.4076 44.5393C100.455 44.2694 101.373 43.5678 102.884 39.0882L111.142 14.6393L87.7723 45.5647H87.0706L84.534 15.8806L77.1939 37.631C75.3589 43.0821 75.7367 44.3234 79.5686 44.5393L79.1908 45.5647H67.4251L67.749 44.5393C72.0127 44.2155 73.1461 43.19 74.9811 37.631L82.3751 15.7187C83.7244 11.7788 83.2387 11.1311 79.2448 10.8613L79.6226 9.83583H89.5533L91.928 37.0913L112.221 9.83583H122.206L121.882 10.8613C118.05 11.1851 117.133 11.8867 115.837 15.7187L107.796 39.6819C106.5 43.5138 106.932 44.2694 110.494 44.5393L110.116 45.5647ZM157.669 10.8613C154.431 11.0772 153.513 11.2391 149.573 15.9346L133.166 38.0088C128.417 44.4313 125.934 46.2124 121.131 46.2124C118.54 46.2124 117.245 44.9171 117.946 42.8122C118.756 40.3835 120.483 39.5739 121.508 39.5739C123.397 39.5739 123.775 40.8692 123.397 42.0566C123.128 42.8122 123.128 43.6218 124.099 43.6218C125.556 43.6218 126.96 41.7868 129.874 38.3866L128.849 19.2268C128.471 11.9947 127.499 11.0232 124.261 10.8613L124.585 9.83583H138.941L138.617 10.8613L137.214 10.9153C135.541 10.9692 134.623 11.401 134.246 12.4804C133.868 13.6678 133.598 14.4234 133.76 17.4997L134.569 32.3958L146.389 16.3124C148.062 14.0456 148.008 13.3979 148.278 12.5884C148.656 11.347 148.008 10.9692 145.364 10.8613L145.741 9.83583H158.047L157.669 10.8613ZM183.575 19.6046C182.387 23.1667 179.473 26.4589 175.857 28.186C173.266 29.4813 170.406 30.021 166.466 30.021C165.171 30.021 164.307 29.9671 163.066 29.8591L159.774 39.6819C158.424 43.6218 158.856 44.3774 162.796 44.5393L162.472 45.5647H148.44L148.763 44.5393C152.703 44.1615 153.297 43.6218 154.862 39.0882L162.742 15.7187C164.037 11.8328 163.713 11.2931 160.151 10.8613L160.529 9.83583H173.752C178.448 9.83583 182.387 11.347 183.575 13.7218C184.384 15.2869 184.33 17.3378 183.575 19.6046ZM178.016 19.9284C179.851 14.3694 177.638 11.8328 170.838 11.8328C169.488 11.8328 169.003 12.2106 168.517 13.6678L163.767 27.7003C164.847 27.8082 165.548 27.8622 166.574 27.8622C172.349 27.8622 176.235 25.1636 178.016 19.9284Z" fill="#848484"/>
<path d="M19.8952 84.0257C23.211 84.0257 23.9116 82.9049 23.6781 79.3088L23.4446 74.8254H12.0492L8.1729 80.2895C7.75258 80.8967 7.42567 81.5505 7.23886 82.1109C6.81854 83.4186 7.42567 84.0257 9.52727 84.0257L9.24706 84.9131H0.653832L0.934046 84.0257C3.08235 83.8856 3.82959 83.1851 8.92014 76.3665L25.6863 53.4357H26.5736L28.4417 79.9626C28.7686 83.4186 29.0488 83.8856 30.9636 84.0257L30.6367 84.9131H19.5683L19.8952 84.0257ZM23.4913 72.9106L22.7907 60.0674L13.4503 72.9106H23.4913ZM60.0088 75.3858C59.2616 77.6275 57.3468 80.85 55.2452 82.3444C53.0969 83.9323 49.7343 84.9131 46.325 84.9131H31.8006L32.0808 84.0257C35.7236 83.8856 36.5176 83.2785 37.6851 79.8225L44.6905 59.0867C45.858 55.6307 45.5311 55.117 41.9817 54.8835L42.2619 53.9961H65.7065L63.6049 60.6746H62.484C63.1846 56.4713 62.4373 55.7708 57.5336 55.7708H51.6491C50.4815 55.7708 50.1546 56.051 49.7343 57.3587L46.8388 65.9052C47.4926 65.5316 50.3881 65.158 52.5831 65.158C56.2259 65.158 58.3742 65.8585 60.1956 68.4271C61.4099 70.2018 60.7093 73.3309 60.0088 75.3858ZM55.0117 75.4325C55.9924 72.4902 55.9457 69.2678 53.8441 68.1469C52.8634 67.6332 51.7425 67.2129 49.4074 67.2129C48.6134 67.2129 47.1657 67.3997 46.2316 67.7733L41.6081 81.2703C41.0944 82.7647 41.5614 83.1851 43.7097 83.1851C46.5585 83.1851 48.4733 82.8114 50.1546 81.9708C52.2562 80.8967 54.1243 77.9544 55.0117 75.4325ZM84.9675 92.8524H83.8934C84.5939 88.6492 84.4538 84.9131 79.5501 84.9131H68.7618C63.8581 84.9131 61.2428 88.6492 59.0945 92.8524H58.0203L61.6631 83.1384C65.3993 83.0917 65.9597 82.0642 67.641 79.8225C69.1822 77.8143 71.9843 72.5836 73.292 68.7074L76.5611 59.0867C77.682 55.7241 77.3551 55.2104 74.1326 54.8835L74.4595 53.9961H97.764L97.4838 54.8835C94.0278 55.2104 93.3273 55.7241 92.2064 59.0867L85.528 78.9352C84.4071 82.2977 84.6873 82.8114 87.9098 83.1384L84.9675 92.8524ZM81.3715 78.1412L88.8438 56.051H79.4567L75.3469 68.2403C73.7123 73.1441 71.3772 77.6742 69.0421 80.85C67.4542 83.045 69.1355 82.8582 69.1355 82.8582H75.954C79.41 82.6246 80.0171 82.0642 81.3715 78.1412ZM128.863 54.8835C126.061 55.0703 125.267 55.2104 121.858 59.2735L107.66 78.3747C103.551 83.9323 101.402 85.4735 97.2459 85.4735C95.0042 85.4735 93.8833 84.3526 94.4904 82.5312C95.191 80.4296 96.6854 79.7291 97.5728 79.7291C99.2074 79.7291 99.5343 80.85 99.2074 81.8774C98.9739 82.5312 98.9739 83.2318 99.8145 83.2318C101.075 83.2318 102.29 81.6439 104.812 78.7016L103.924 62.1223C103.597 55.8642 102.757 55.0236 99.9546 54.8835L100.235 53.9961H112.658L112.377 54.8835L111.163 54.9302C109.715 54.9769 108.921 55.3505 108.595 56.2845C108.268 57.312 108.034 57.9658 108.174 60.6279L108.875 73.5177L119.103 59.6004C120.55 57.6389 120.504 57.0785 120.737 56.3779C121.064 55.3038 120.504 54.9769 118.215 54.8835L118.542 53.9961H129.19L128.863 54.8835ZM148.805 77.0204L144.135 84.9131H120.69L120.97 84.0257C124.239 83.7922 125.08 83.1384 126.201 79.8225L133.206 59.0867C134.327 55.7708 134 55.1637 130.871 54.8835L131.151 53.9961H154.222L152.074 60.6746H151C151.7 56.4713 150.953 55.7708 146.049 55.7708H140.165C138.997 55.7708 138.67 56.051 138.25 57.3587L134.701 67.7266H141.426C144.929 67.7266 145.816 67.1195 147.684 63.2899H148.711L145.022 74.1248H143.995C144.742 70.2485 144.321 69.6414 140.772 69.6414H134.047L130.171 81.1769C129.844 82.0642 129.75 82.4845 129.984 82.6713C130.264 82.9983 131.899 83.1851 134 83.1851H135.214C141.426 83.1851 143.714 82.0642 147.591 77.0204H148.805ZM175.485 76.5066C173.804 81.5972 168.667 84.9131 162.082 84.9131H147.557L147.884 84.0257C151.527 83.8856 152.321 83.2785 153.489 79.8225L160.494 59.0867C161.661 55.6307 161.288 55.117 157.738 54.8835L158.065 53.9961H170.208C177.727 53.9961 180.669 56.7049 178.895 61.9355C178.241 63.8503 177.027 65.5783 175.579 66.6057C174.178 67.5865 173.15 68.0535 170.675 68.6606C173.244 69.4079 174.224 69.9683 175.112 71.2293C175.999 72.5836 176.186 74.4517 175.485 76.5066ZM170.442 76.5533C171.422 73.6111 170.862 71.743 168.76 70.6221C167.406 69.9216 165.538 69.6881 161.335 69.6881L157.412 81.2703C156.898 82.7647 157.318 83.1851 159.466 83.1851C162.315 83.1851 164.277 82.8114 165.958 81.9708C168.06 80.8967 169.554 79.0753 170.442 76.5533ZM174.411 62.1223C175.812 57.9658 173.897 55.7241 168.9 55.7241H166.986C166.332 55.7241 165.911 56.1444 165.584 57.1252L161.942 67.82H166.098C170.161 67.82 173.197 65.7651 174.411 62.1223Z" fill="#848484"/>
</svg>
