<svg width="143" height="43" viewBox="0 0 143 43" fill="none" xmlns="http://www.w3.org/2000/svg">
<path d="M8.08766 6.74012H0.7564V1.27077H21.2956V6.74012H13.9643V42H8.08766V6.74012ZM22.3797 21.6354C22.3797 5.34369 24.8816 0.688923 32.3293 0.688923C39.7187 0.688923 42.2207 5.34369 42.2207 21.6354C42.2207 37.9271 39.7187 42.5818 32.3293 42.5818C24.8816 42.5818 22.3797 37.9271 22.3797 21.6354ZM28.14 21.6354C28.14 34.3196 28.9546 37.1707 32.3293 37.1707C35.6458 37.1707 36.4604 34.3196 36.4604 21.6354C36.4604 8.95114 35.6458 6.10009 32.3293 6.10009C28.9546 6.10009 28.14 8.95114 28.14 21.6354ZM46.8954 1.27077H52.7721V36.2397H61.7325V42H46.8954V1.27077ZM57.6828 1.27077H63.5594L68.9706 20.0062H69.2615L74.6727 1.27077H80.6075L72.1126 29.2576V42H66.2359V29.2576L57.6828 1.27077ZM76.7896 42L85.11 1.27077H91.3939L99.7143 42H94.0122L92.5576 34.6106H83.9463L82.4917 42H76.7896ZM84.8191 29.6649H91.6849L88.3683 12.1513H88.1356L84.8191 29.6649ZM102.198 1.27077H119.479V6.27465L107.958 36.5306H119.828V42H101.616V36.8216L113.079 6.74012H102.198V1.27077ZM129.253 42H123.376V1.27077H129.253V18.4352H136.875V1.27077H142.752V42H136.875V23.9046H129.253V42Z" fill="#848484"/>
</svg>
