<svg width="26" height="25" viewBox="0 0 26 25" fill="none" xmlns="http://www.w3.org/2000/svg">
<path fill-rule="evenodd" clip-rule="evenodd" d="M-20.3069 0.0961876C-20.3676 0.0878888 -20.8153 0.121088 -21.2934 0.162586C-21.7714 0.212385 -22.4164 0.320284 -22.7124 0.411581C-23.0159 0.502878 -23.4788 0.693773 -23.7368 0.84317C-24.0024 0.984266 -24.4046 1.30796 -24.6398 1.56525C-24.951 1.91385 -25.0876 2.14624 -25.1862 2.48653C-25.2697 2.77703 -25.3228 3.21691 -25.3228 3.69C-25.3228 4.11329 -25.2697 4.65278 -25.2014 4.93497C-25.1407 5.20887 -25.0117 5.58236 -24.9282 5.76495C-24.8371 5.94755 -24.6322 6.30444 -24.4577 6.55343C-24.2908 6.80243 -23.9417 7.24232 -23.6913 7.53281C-23.4333 7.8233 -22.9704 8.27149 -22.6593 8.52879C-22.3481 8.78608 -22.075 9.02678 -22.0522 9.05168C-22.031 9.08256 -21.734 9.30742 -21.3749 9.57921L-21.2934 9.64096C-20.8988 9.93146 -20.2993 10.3464 -19.9654 10.5539C-19.6315 10.7614 -19.0017 11.1349 -17.7648 11.8321L-18.5236 11.8902C-18.941 11.9234 -19.5404 12.023 -19.8516 12.1143C-20.1627 12.2056 -20.5876 12.3716 -20.8001 12.4795C-21.005 12.5957 -21.3465 12.8613 -21.5438 13.0854C-21.7487 13.3012 -21.946 13.6166 -21.9991 13.7743C-22.0446 13.932 -22.0825 14.3221 -22.0825 14.6457C-22.0825 15.0856 -22.037 15.3346 -21.8928 15.6832C-21.7866 15.9488 -21.5134 16.3472 -21.2478 16.6377C-21.005 16.9116 -20.5952 17.2851 -20.3448 17.4677C-20.0944 17.642 -19.586 17.9491 -19.2065 18.1483C-18.8271 18.3392 -18.2352 18.613 -17.8786 18.7541C-17.5219 18.8952 -16.8541 19.1193 -16.3988 19.2521C-15.9435 19.3766 -15.3592 19.526 -15.1088 19.5758C-14.8584 19.6256 -14.0388 19.7252 -13.2876 19.7999C-12.5363 19.8663 -11.345 19.9576 -10.6317 19.9991C-10.3823 20.0136 -10.093 20.0302 -9.79826 20.0466L-9.84636 20.125C-10.2638 20.8139 -10.7115 21.5776 -10.8481 21.8266C-10.8976 21.9168 -10.948 22.0091 -10.9941 22.0934C-11.0752 22.2419 -11.1426 22.3653 -11.1668 22.4076C-11.2048 22.474 -11.349 22.7396 -11.478 22.9886C-11.607 23.2376 -11.865 23.7606 -12.0547 24.1507C-12.2369 24.5408 -12.3659 24.8728 -12.3431 24.8977C-12.3204 24.9226 -12.1458 24.8811 -11.9561 24.8147C-11.7208 24.7317 -11.5311 24.5823 -11.3641 24.3582C-11.2275 24.1756 -11.0758 23.9515 -11.0378 23.8602C-10.9923 23.7689 -10.9088 23.6361 -10.8481 23.5697C-10.795 23.5033 -10.666 23.3123 -10.5597 23.1546C-10.4611 22.9969 -10.2106 22.64 -10.0057 22.3661C-9.89869 22.2175 -9.78717 22.0665 -9.70027 21.9488C-9.627 21.8495 -9.57123 21.774 -9.5504 21.7436C-9.49727 21.6772 -9.37585 21.5029 -9.28478 21.3701C-9.18613 21.2373 -8.9281 20.8969 -8.71561 20.623C-8.62257 20.5107 -8.47664 20.3317 -8.30819 20.1241C-8.17274 20.1321 -8.03217 20.1401 -7.89368 20.148C-7.46013 20.1727 -7.04702 20.1961 -6.8754 20.2149C-6.64775 20.2315 -3.95388 20.2813 -0.895754 20.3145C-0.755573 20.3161 -0.614389 20.021 -0.47591 19.7315C-0.342674 19.453 -0.211941 19.1797 -0.0870132 19.1809C0.0369339 19.1797 0.159912 19.4534 0.285223 19.7323C0.415417 20.0221 0.548128 20.3175 0.687059 20.3159C3.74539 20.2827 6.43946 20.2329 6.66713 20.2163C6.83877 20.1975 7.25198 20.174 7.6856 20.1494C7.82442 20.1415 7.96534 20.1335 8.10109 20.1255C8.26859 20.3318 8.41364 20.5098 8.50627 20.6216C8.71874 20.8955 8.97675 21.2358 9.0754 21.3686C9.16646 21.5014 9.28787 21.6757 9.34099 21.7421C9.36182 21.7724 9.41758 21.848 9.49084 21.9472C9.57773 22.0649 9.68925 22.216 9.7963 22.3646C10.0012 22.6385 10.2516 22.9953 10.3502 23.153C10.4565 23.3107 10.5855 23.5016 10.6386 23.568C10.6993 23.6344 10.7828 23.7672 10.8283 23.8585C10.8663 23.9498 11.018 24.1739 11.1546 24.3565C11.3216 24.5806 11.5113 24.73 11.7465 24.813C11.9362 24.8794 12.1108 24.9209 12.1335 24.896C12.1563 24.8711 12.0273 24.5391 11.8452 24.149C11.6555 23.7589 11.3974 23.236 11.2684 22.987C11.1394 22.7381 10.9953 22.4725 10.9573 22.4061C10.9331 22.3637 10.8658 22.2405 10.7847 22.0922C10.7386 22.0078 10.6881 21.9153 10.6386 21.8251C10.502 21.5761 10.0543 20.8125 9.63694 20.1236L9.59053 20.048C9.8852 20.0315 10.1743 20.015 10.4236 20.0005C11.137 19.959 12.3285 19.8677 13.0798 19.8013C13.8311 19.7266 14.6507 19.627 14.9011 19.5772C15.1515 19.5274 15.7359 19.378 16.1912 19.2535C16.6466 19.1207 17.3144 18.8966 17.6711 18.7554C18.0277 18.6143 18.6197 18.3404 18.9991 18.1495C19.3786 17.9503 19.887 17.6432 20.1375 17.4689C20.3879 17.2863 20.7977 16.9128 21.0405 16.6388C21.3062 16.3483 21.5794 15.9499 21.6856 15.6843C21.8298 15.3357 21.8753 15.0867 21.8753 14.6468C21.8753 14.323 21.8374 13.9329 21.7918 13.7752C21.7387 13.6175 21.5414 13.3021 21.3365 13.0863C21.1392 12.8622 20.7977 12.5966 20.5928 12.4804C20.3803 12.3724 19.9553 12.2064 19.6442 12.1151C19.333 12.0238 18.7335 11.9242 18.3161 11.891L17.5572 11.8329C18.7942 11.1357 19.4241 10.7622 19.758 10.5547C20.0919 10.3472 20.6915 9.93214 21.0861 9.64163L21.1679 9.57967C21.5269 9.30795 21.8238 9.08318 21.845 9.0523C21.8677 9.0274 22.1409 8.78669 22.4521 8.52937C22.7632 8.27206 23.2262 7.82384 23.4842 7.53333C23.7346 7.24282 24.0837 6.80289 24.2507 6.55388C24.4252 6.30487 24.6301 5.94796 24.7212 5.76535C24.8046 5.58274 24.9337 5.20922 24.9944 4.93531C25.0627 4.6531 25.1158 4.11357 25.1158 3.69025C25.1158 3.21713 25.0627 2.77721 24.9792 2.4867C24.8805 2.14638 24.7439 1.91397 24.4328 1.56536C24.1975 1.30804 23.7953 0.984329 23.5297 0.843222C23.2717 0.693815 22.8088 0.502907 22.5052 0.411602C22.2092 0.320299 21.5642 0.212393 21.0861 0.162592C20.608 0.12109 20.1602 0.0878888 20.0995 0.0961876C20.0716 0.0961876 19.9556 0.10495 19.7876 0.117641C19.5899 0.132574 19.3201 0.152947 19.0371 0.170893C18.5134 0.212395 17.6331 0.303698 17.0791 0.3701C16.5327 0.436504 15.4703 0.627413 14.7266 0.78512C13.9904 0.951128 13.0039 1.19184 12.5485 1.32464C12.0932 1.45745 11.3571 1.68986 10.9169 1.84757C10.4768 2.00528 9.84689 2.24599 9.51297 2.38709C9.17906 2.5199 8.56436 2.78551 8.14697 2.98472C7.72958 3.17563 6.92515 3.59065 6.36357 3.89776C5.80199 4.20488 4.95962 4.6946 4.50429 4.99341C4.04895 5.28393 3.58603 5.58274 3.48737 5.64914C3.38112 5.71555 2.81954 6.11396 2.2352 6.54558C1.64326 6.9772 0.876781 7.57483 0.520103 7.87364C0.158728 8.17639 -0.36743 8.17585 -0.728806 7.8731C-1.08546 7.57431 -1.85188 6.97672 -2.44378 6.54514C-3.02809 6.11355 -3.58963 5.71515 -3.69587 5.64876C-3.79452 5.58236 -4.25741 5.28357 -4.71271 4.99307C-5.16802 4.69428 -6.01033 4.20459 -6.57187 3.8975C-7.13341 3.59041 -7.93778 3.17542 -8.35514 2.98452C-8.7725 2.78532 -9.38717 2.51973 -9.72105 2.38693C-10.0549 2.24584 -10.6848 2.00514 -11.1249 1.84745C-11.565 1.68975 -12.3011 1.45736 -12.7564 1.32456C-13.2117 1.19176 -14.1982 0.951069 -14.9343 0.785072C-15.6779 0.627377 -16.7403 0.43648 -17.2867 0.370081C-17.8406 0.303684 -18.7209 0.212385 -19.2445 0.170887C-19.5275 0.152943 -19.7972 0.132572 -19.9949 0.117641C-20.163 0.104948 -20.279 0.0961876 -20.3069 0.0961876ZM-3.34675 17.5508C-2.89145 17.6586 -2.13261 17.8246 -1.67731 17.9159C-1.45475 17.9606 -1.17235 18.0151 -0.895704 18.067C-0.773924 18.0898 -0.695066 17.8963 -0.604256 17.6735C-0.488775 17.3901 -0.353962 17.0593 -0.0869637 17.0656C0.173393 17.0717 0.297993 17.3968 0.404812 17.6754C0.490189 17.8982 0.564209 18.0913 0.687107 18.0682C0.963772 18.0164 1.24619 17.9618 1.46877 17.9172C1.9241 17.8259 2.68299 17.6599 3.13833 17.552C3.59366 17.4358 4.23113 17.2698 4.54228 17.1784C4.72966 17.1185 5.02715 17.0193 5.3303 16.9155L5.30402 16.8868C4.58312 16.1066 3.58904 15.0774 3.09579 14.5877C2.59496 14.1063 1.69953 13.2598 1.09246 12.7203C0.409012 12.1129 -0.617744 12.1138 -1.30119 12.7211C-1.9083 13.2607 -2.8038 14.1073 -3.30467 14.5887C-3.79795 15.0785 -4.79209 16.1077 -5.51304 16.8879L-5.53751 16.9147C-5.23475 17.0184 -4.93776 17.1173 -4.7506 17.1773C-4.43948 17.2686 -3.80206 17.4346 -3.34675 17.5508ZM-9.0684 15.1355C-8.80281 15.3513 -8.20332 15.7331 -7.74802 15.9738C-7.60226 16.0508 -7.42773 16.1373 -7.24335 16.2246C-6.93821 15.8155 -6.26023 14.9552 -5.70276 14.2733C-5.12601 13.5678 -4.28364 12.5717 -3.83589 12.0737C-3.38055 11.5674 -2.68237 10.837 -2.28775 10.4385C-2.12143 10.2741 -2.1343 10.0009 -2.3178 9.85592C-2.42816 9.76873 -2.54634 9.67544 -2.6638 9.58294C-2.82589 9.45884 -3.00737 9.31656 -3.17984 9.18134L-3.18011 9.18113L-3.18037 9.18093L-3.18048 9.18084L-3.18069 9.18067C-3.41161 8.99963 -3.62629 8.83132 -3.75653 8.73636C-3.95128 8.58211 -4.16386 8.42786 -4.25752 8.3599L-4.25763 8.35982L-4.28772 8.33797C-4.35601 8.28817 -4.4243 8.23837 -4.44707 8.21347C-4.46983 8.18857 -4.78855 7.95618 -5.16796 7.69888C-5.54738 7.44159 -6.35934 6.9519 -6.98918 6.61161C-7.61143 6.26302 -8.33233 5.88953 -8.58274 5.76503C-8.83316 5.64883 -9.34158 5.41644 -9.721 5.25044C-10.1004 5.09275 -10.7454 4.83545 -11.1628 4.68606C-11.5802 4.53666 -12.1948 4.34576 -12.5287 4.27107C-12.8778 4.17977 -13.4545 4.11337 -13.8946 4.11337C-14.312 4.11337 -14.79 4.15487 -14.957 4.20467C-15.1239 4.26277 -15.3895 4.41216 -15.5413 4.53666C-15.7158 4.67776 -15.8752 4.91845 -15.9587 5.14255C-16.0345 5.35004 -16.0953 5.68203 -16.0877 5.88953C-16.0801 6.10532 -15.989 6.47882 -15.8752 6.76101C-15.7614 7.0349 -15.5565 7.40839 -15.4275 7.59099C-15.2985 7.77358 -15.0177 8.10557 -14.8052 8.32137C-14.6003 8.54546 -14.1678 8.91066 -13.8567 9.14305C-13.5456 9.36715 -12.8095 9.80703 -12.2252 10.1224C-11.6409 10.4378 -10.8365 10.8113 -10.4419 10.9524C-10.0473 11.0935 -9.6527 11.2429 -9.56923 11.2844C-9.48576 11.3259 -9.11393 11.4504 -8.73451 11.5666C-8.36484 11.6798 -7.8223 11.8245 -7.50691 11.9087L-7.50671 11.9087L-7.50651 11.9088L-7.50643 11.9088L-7.50635 11.9088L-7.48243 11.9152C-7.1713 11.9899 -6.85259 12.1144 -6.7767 12.1891C-6.70082 12.2638 -6.64012 12.4132 -6.64012 12.5294C-6.64012 12.6456 -6.70082 12.795 -6.76911 12.8614C-6.87535 12.961 -7.14854 12.9859 -8.19574 12.9859C-9.34158 12.9859 -9.53129 13.0025 -9.79688 13.1519C-10.0549 13.293 -10.108 13.3677 -10.1232 13.6083C-10.146 13.8407 -10.0928 13.9818 -9.85759 14.3138C-9.69065 14.5462 -9.34159 14.9114 -9.0684 15.1355ZM5.49372 14.2723C4.91701 13.5668 4.0747 12.5709 3.62698 12.0729C3.17168 11.5666 2.47355 10.8362 2.07895 10.4378C1.91312 10.2739 1.92595 10.0015 2.10892 9.85691C2.21939 9.76962 2.33772 9.67621 2.45532 9.5836C2.61764 9.45933 2.79939 9.31683 2.97208 9.18145C3.20308 9.00034 3.41785 8.83196 3.54813 8.73696C3.7429 8.5827 3.95549 8.42844 4.04916 8.36048L4.0492 8.36045L4.07935 8.33854C4.14766 8.28874 4.21595 8.23894 4.23872 8.21404C4.26149 8.18914 4.58022 7.95672 4.95967 7.69941C5.33912 7.4421 6.15113 6.95238 6.78101 6.61207C7.4033 6.26345 8.12425 5.88993 8.37468 5.76542C8.62512 5.64922 9.13358 5.41681 9.51302 5.2508C9.89246 5.09309 10.5375 4.83578 10.9549 4.68638C11.3723 4.53697 11.987 4.34606 12.3209 4.27136C12.67 4.18005 13.2468 4.11365 13.6869 4.11365C14.1043 4.11365 14.5824 4.15515 14.7494 4.20495C14.9163 4.26306 15.1819 4.41246 15.3337 4.53697C15.5083 4.67808 15.6676 4.91879 15.7511 5.1429C15.827 5.35041 15.8877 5.68242 15.8801 5.88993C15.8725 6.10574 15.7815 6.47926 15.6676 6.76147C15.5538 7.03538 15.3489 7.4089 15.2199 7.59151C15.0909 7.77412 14.8101 8.10613 14.5976 8.32194C14.3927 8.54605 13.9601 8.91127 13.649 9.14368C13.3378 9.36779 12.6017 9.80771 12.0174 10.1231C11.433 10.4385 10.6286 10.8121 10.234 10.9532C9.83935 11.0943 9.44472 11.2437 9.36124 11.2852C9.27776 11.3267 8.90591 11.4512 8.52646 11.5674C8.15656 11.6807 7.61357 11.8255 7.29823 11.9096L7.29818 11.9096L7.2981 11.9097L7.27429 11.916C6.96315 11.9907 6.64441 12.1152 6.56852 12.1899C6.49263 12.2646 6.43192 12.414 6.43192 12.5302C6.43192 12.6464 6.49263 12.7958 6.56093 12.8623C6.66717 12.9619 6.94038 12.9868 7.98765 12.9868C9.13358 12.9868 9.3233 13.0034 9.58891 13.1528C9.84694 13.2939 9.90005 13.3686 9.91523 13.6093C9.938 13.8417 9.88488 13.9828 9.64962 14.3148C9.48267 14.5472 9.13358 14.9124 8.86037 15.1366C8.59476 15.3524 7.99524 15.7342 7.5399 15.9749C7.39427 16.0519 7.21991 16.1382 7.0357 16.2255C6.73131 15.8172 6.05206 14.9553 5.49372 14.2723Z" fill="black"/>
</svg>
