<svg width="49" height="51" viewBox="0 0 49 51" fill="none" xmlns="http://www.w3.org/2000/svg">
<path fill-rule="evenodd" clip-rule="evenodd" d="M-42.1137 0.692436C-42.2351 0.675839 -43.1306 0.742237 -44.0867 0.825234C-45.0428 0.924831 -46.3329 1.14063 -46.9248 1.32322C-47.5318 1.50582 -48.4576 1.88761 -48.9736 2.1864C-49.5048 2.46859 -50.3092 3.11598 -50.7797 3.63057C-51.4019 4.32775 -51.6751 4.79254 -51.8724 5.47313C-52.0394 6.05411 -52.1456 6.93389 -52.1456 7.88007C-52.1456 8.72665 -52.0393 9.80562 -51.9028 10.37C-51.7813 10.9178 -51.5233 11.6648 -51.3564 12.03C-51.1743 12.3952 -50.7645 13.1089 -50.4154 13.6069C-50.0815 14.1049 -49.3834 14.9847 -48.8826 15.5657C-48.3665 16.1467 -47.4408 17.043 -46.8185 17.5576C-46.1963 18.0722 -45.6499 18.5536 -45.6044 18.6034C-45.562 18.6652 -44.9679 19.1149 -44.2499 19.6585L-44.0867 19.782C-43.2975 20.363 -42.0985 21.193 -41.4308 21.6079C-40.763 22.0229 -39.5033 22.7699 -37.0295 24.1643L-38.5472 24.2805C-39.3819 24.3469 -40.5809 24.5461 -41.2031 24.7287C-41.8254 24.9113 -42.6753 25.2433 -43.1002 25.459C-43.51 25.6914 -44.193 26.2226 -44.5875 26.6708C-44.9973 27.1024 -45.3919 27.7332 -45.4982 28.0486C-45.5892 28.364 -45.6651 29.1442 -45.6651 29.7915C-45.6651 30.6713 -45.574 31.1693 -45.2857 31.8665C-45.0732 32.3977 -44.5268 33.1945 -43.9957 33.7755C-43.51 34.3232 -42.6904 35.0702 -42.1896 35.4354C-41.6888 35.784 -40.6719 36.3982 -39.9131 36.7966C-39.1542 37.1784 -37.9705 37.7262 -37.2572 38.0084C-36.5438 38.2905 -35.2083 38.7387 -34.2977 39.0043C-33.3871 39.2533 -32.2185 39.5521 -31.7176 39.6517C-31.2168 39.7513 -29.5777 39.9505 -28.0752 40.0999C-26.5727 40.2327 -24.1899 40.4153 -22.7633 40.4983C-22.2646 40.5273 -21.6861 40.5604 -21.0965 40.5933L-21.1927 40.7501C-22.0275 42.1279 -22.923 43.6552 -23.1962 44.1532C-23.2951 44.3336 -23.3961 44.5183 -23.4882 44.6869C-23.6504 44.9838 -23.7853 45.2306 -23.8337 45.3153C-23.9096 45.4481 -24.1979 45.9793 -24.456 46.4773C-24.714 46.9754 -25.23 48.0212 -25.6095 48.8014C-25.9737 49.5817 -26.2318 50.2457 -26.1862 50.2955C-26.1407 50.3453 -25.7916 50.2623 -25.4122 50.1295C-24.9417 49.9635 -24.5622 49.6647 -24.2283 49.2165C-23.9551 48.8512 -23.6515 48.403 -23.5756 48.2204C-23.4846 48.0378 -23.3176 47.7722 -23.1962 47.6394C-23.09 47.5066 -22.8319 47.1248 -22.6194 46.8093C-22.4221 46.4939 -21.9213 45.7801 -21.5115 45.2323C-21.2974 44.9351 -21.0743 44.633 -20.9005 44.3976C-20.754 44.1991 -20.6425 44.048 -20.6008 43.9872C-20.4945 43.8544 -20.2517 43.5058 -20.0696 43.2402C-19.8723 42.9746 -19.3562 42.2939 -18.9312 41.7461C-18.7451 41.5215 -18.4533 41.1634 -18.1164 40.7484C-17.8455 40.7643 -17.5643 40.7803 -17.2874 40.7961C-16.4203 40.8454 -15.594 40.8923 -15.2508 40.9299C-14.7955 40.9631 -9.40775 41.0627 -3.29151 41.1291C-3.01115 41.1322 -2.72878 40.542 -2.45182 39.963C-2.18535 39.406 -1.92388 38.8594 -1.67403 38.8619C-1.42613 38.8594 -1.18018 39.4069 -0.929554 39.9647C-0.669167 40.5442 -0.403744 41.135 -0.125881 41.1319C5.99079 41.0655 11.3789 40.9659 11.8343 40.9327C12.1775 40.8951 13.0039 40.8482 13.8712 40.7988C14.1488 40.7831 14.4307 40.767 14.7022 40.751C15.0372 41.1638 15.3273 41.5197 15.5125 41.7433C15.9375 42.2911 16.4535 42.9716 16.6508 43.2372C16.8329 43.5028 17.0757 43.8514 17.182 43.9842C17.2236 44.045 17.3352 44.196 17.4817 44.3945C17.6555 44.6299 17.8785 44.932 18.0926 45.2292C18.5024 45.777 19.0032 46.4908 19.2005 46.8061C19.413 47.1215 19.671 47.5033 19.7772 47.6361C19.8986 47.7689 20.0656 48.0345 20.1566 48.2171C20.2325 48.3997 20.536 48.8479 20.8092 49.2131C21.1431 49.6613 21.5225 49.9601 21.993 50.1261C22.3724 50.2589 22.7215 50.3419 22.767 50.2921C22.8126 50.2423 22.5546 49.5783 22.1903 48.7981C21.8109 48.0179 21.2949 46.9721 21.0369 46.4742C20.7789 45.9762 20.4905 45.445 20.4146 45.3122C20.3662 45.2275 20.2313 44.9806 20.0691 44.6837C19.977 44.5152 19.8761 44.3305 19.7772 44.1502C19.504 43.6522 18.6086 42.1251 17.7739 40.7473L17.6811 40.596C18.2704 40.5631 18.8487 40.5301 19.3473 40.5011C20.774 40.4181 23.1569 40.2355 24.6595 40.1026C26.1621 39.9532 27.8013 39.754 28.3022 39.6544C28.8031 39.5548 29.9718 39.256 30.8824 39.007C31.7931 38.7414 33.1288 38.2932 33.8421 38.0109C34.5555 37.7287 35.7394 37.1809 36.4982 36.7991C37.2571 36.4007 38.2741 35.7864 38.7749 35.4378C39.2758 35.0726 40.0954 34.3256 40.5811 33.7778C41.1123 33.1967 41.6587 32.3999 41.8712 31.8687C42.1596 31.1714 42.2506 30.6734 42.2506 29.7936C42.2506 29.1461 42.1748 28.3659 42.0837 28.0505C41.9775 27.7351 41.5828 27.1043 41.173 26.6726C40.7784 26.2244 40.0954 25.6932 39.6856 25.4608C39.2606 25.245 38.4107 24.9129 37.7884 24.7303C37.1661 24.5477 35.967 24.3485 35.1322 24.2821L33.6145 24.1659C36.0884 22.7715 37.3482 22.0244 38.016 21.6094C38.6839 21.1944 39.8829 20.3643 40.6722 19.7833L40.8358 19.6594C41.5537 19.116 42.1476 18.6664 42.1899 18.6047C42.2355 18.5549 42.7819 18.0734 43.4042 17.5588C44.0265 17.0442 44.9523 16.1477 45.4683 15.5667C45.9692 14.9857 46.6674 14.1059 47.0013 13.6078C47.3504 13.1098 47.7602 12.396 47.9423 12.0308C48.1093 11.6655 48.3673 10.9185 48.4887 10.3707C48.6253 9.80626 48.7316 8.72721 48.7316 7.88057C48.7316 6.93432 48.6254 6.05449 48.4584 5.47346C48.2611 4.79283 47.9879 4.328 47.3656 3.63077C46.8951 3.11615 46.0906 2.46872 45.5594 2.1865C45.0434 1.88769 44.1175 1.50587 43.5104 1.32327C42.9185 1.14066 41.6284 0.924847 40.6722 0.825245C39.716 0.742241 38.8205 0.675839 38.699 0.692436C38.6432 0.692436 38.4112 0.709961 38.0752 0.735344C37.6797 0.765209 37.1402 0.805954 36.5741 0.841847C35.5269 0.924851 33.7662 1.10746 32.6583 1.24026C31.5655 1.37307 29.4406 1.75489 27.9531 2.0703C26.4809 2.40232 24.5078 2.88374 23.5971 3.14935C22.6864 3.41496 21.2142 3.87978 20.3338 4.1952C19.4535 4.51061 18.1938 4.99204 17.5259 5.27425C16.8581 5.53986 15.6287 6.07108 14.7939 6.4695C13.9592 6.85132 12.3503 7.68136 11.2271 8.29559C10.104 8.90981 8.41924 9.88926 7.50857 10.4869C6.5979 11.0679 5.67205 11.6655 5.47474 11.7983C5.26225 11.9312 4.13908 12.728 2.97039 13.5912C1.78652 14.4545 0.253563 15.6497 -0.459793 16.2473C-1.18254 16.8528 -2.23486 16.8518 -2.95761 16.2463C-3.67092 15.6487 -5.20377 14.4535 -6.38756 13.5903C-7.55617 12.7272 -8.67926 11.9304 -8.89173 11.7976C-9.08903 11.6648 -10.0148 11.0672 -10.9254 10.4862C-11.836 9.88862 -13.5207 8.90924 -14.6437 8.29506C-15.7668 7.68087 -17.3756 6.85089 -18.2103 6.4691C-19.045 6.07071 -20.2743 5.53952 -20.9421 5.27393C-21.6099 4.99174 -22.8696 4.51035 -23.7498 4.19495C-24.6301 3.87956 -26.1022 3.41477 -27.0128 3.14918C-27.9234 2.88359 -29.8964 2.4022 -31.3686 2.07021C-32.8559 1.75481 -34.9806 1.37302 -36.0734 1.24022C-37.1813 1.10743 -38.9418 0.924831 -39.989 0.841835C-40.555 0.805946 -41.0944 0.765205 -41.4898 0.735344C-41.8259 0.709957 -42.0579 0.692436 -42.1137 0.692436ZM-8.19351 35.6016C-7.28291 35.8174 -5.76523 36.1493 -4.85462 36.3319C-4.4095 36.4212 -3.8447 36.5303 -3.29142 36.634C-3.04786 36.6797 -2.89014 36.2926 -2.70852 35.847C-2.47756 35.2802 -2.20793 34.6186 -1.67393 34.6312C-1.15322 34.6435 -0.904022 35.2936 -0.690384 35.8509C-0.51963 36.2964 -0.37159 36.6826 -0.125793 36.6365C0.427536 36.5328 0.992371 36.4237 1.43752 36.3344C2.34819 36.1518 3.86597 35.8198 4.77665 35.604C5.68732 35.3716 6.96226 35.0396 7.58455 34.857C7.95932 34.737 8.55429 34.5387 9.16059 34.3311L9.10802 34.2736C7.66623 32.7132 5.67807 30.6549 4.69158 29.6755C3.68991 28.7127 1.89906 27.0196 0.68491 25.9406C-0.681984 24.7259 -2.7355 24.7276 -4.10239 25.9423C-5.31661 27.0214 -7.1076 28.7147 -8.10934 29.6775C-9.0959 30.657 -11.0842 32.7155 -12.5261 34.2759L-12.575 34.3295C-11.9695 34.5368 -11.3755 34.7348 -11.0012 34.8546C-10.379 35.0372 -9.10412 35.3692 -8.19351 35.6016ZM-19.6368 30.7711C-19.1056 31.2027 -17.9067 31.9662 -16.996 32.4476C-16.7045 32.6017 -16.3555 32.7746 -15.9867 32.9492C-15.3764 32.1311 -14.0205 30.4105 -12.9055 29.0467C-11.752 27.6356 -10.0673 25.6435 -9.17179 24.6475C-8.26112 23.6348 -6.86475 22.174 -6.0755 21.3771C-5.74287 21.0483 -5.7686 20.5019 -6.13561 20.2119C-6.35632 20.0375 -6.59269 19.8509 -6.8276 19.6659C-7.15178 19.4177 -7.51474 19.1332 -7.85969 18.8627L-7.86023 18.8623L-7.86074 18.8619L-7.86096 18.8617L-7.86138 18.8614C-8.32322 18.4993 -8.75258 18.1627 -9.01306 17.9728C-9.40257 17.6643 -9.82774 17.3558 -10.0151 17.2199L-10.0153 17.2197L-10.0754 17.176C-10.212 17.0764 -10.3486 16.9768 -10.3941 16.927C-10.4397 16.8772 -11.0771 16.4124 -11.8359 15.8978C-12.5948 15.3832 -14.2187 14.4039 -15.4784 13.7233C-16.7229 13.0261 -18.1647 12.2791 -18.6655 12.0301C-19.1663 11.7977 -20.1832 11.3329 -20.942 11.0009C-21.7009 10.6856 -22.9909 10.171 -23.8256 9.87217C-24.6603 9.57338 -25.8896 9.19159 -26.5574 9.04219C-27.2556 8.8596 -28.409 8.7268 -29.2892 8.7268C-30.124 8.7268 -31.0801 8.8098 -31.414 8.90939C-31.7479 9.02559 -32.2791 9.32439 -32.5826 9.57338C-32.9317 9.85557 -33.2504 10.337 -33.4173 10.7851C-33.5691 11.2001 -33.6905 11.8641 -33.6753 12.2791C-33.6602 12.7107 -33.478 13.4577 -33.2504 14.0221C-33.0227 14.5699 -32.613 15.3168 -32.3549 15.682C-32.0969 16.0472 -31.5354 16.7112 -31.1105 17.1428C-30.7007 17.591 -29.8356 18.3214 -29.2134 18.7862C-28.5911 19.2343 -27.119 20.1141 -25.9503 20.7449C-24.7817 21.3757 -23.173 22.1227 -22.3838 22.4049C-21.5946 22.6871 -20.8054 22.9859 -20.6385 23.0689C-20.4715 23.1519 -19.7279 23.4008 -18.969 23.6332C-18.2297 23.8597 -17.1446 24.1491 -16.5138 24.3174L-16.5134 24.3175L-16.513 24.3176L-16.5129 24.3176L-16.5127 24.3177L-16.4649 24.3304C-15.8426 24.4798 -15.2052 24.7288 -15.0534 24.8782C-14.9016 25.0276 -14.7802 25.3264 -14.7802 25.5588C-14.7802 25.7912 -14.9016 26.09 -15.0382 26.2228C-15.2507 26.422 -15.7971 26.4718 -17.8915 26.4718C-20.1832 26.4718 -20.5626 26.505 -21.0938 26.8038C-21.6098 27.086 -21.716 27.2354 -21.7464 27.7167C-21.7919 28.1815 -21.6857 28.4637 -21.2152 29.1277C-20.8813 29.5925 -20.1832 30.3229 -19.6368 30.7711ZM9.48744 29.0447C8.33401 27.6337 6.64939 25.6418 5.75396 24.6458C4.84335 23.6332 3.44708 22.1725 2.65789 21.3757C2.32623 21.0478 2.35189 20.503 2.71783 20.2139C2.93877 20.0393 3.17544 19.8525 3.41064 19.6673C3.73525 19.4187 4.09874 19.1338 4.44409 18.863L4.44416 18.8629C4.90616 18.5007 5.3357 18.164 5.59626 17.974C5.98585 17.6654 6.41111 17.3568 6.5984 17.221L6.6587 17.1771C6.7953 17.0775 6.9319 16.9779 6.97743 16.9281C7.02297 16.8783 7.66044 16.4135 8.41933 15.8989C9.17822 15.3843 10.8022 14.4048 12.062 13.7242C13.3066 13.027 14.7485 12.2799 15.2494 12.0309C15.7502 11.7985 16.7671 11.3337 17.526 11.0017C18.2849 10.6862 19.575 10.1716 20.4098 9.87281C21.2446 9.574 22.474 9.19218 23.1418 9.04277C23.84 8.86016 24.9935 8.72736 25.8738 8.72736C26.7086 8.72736 27.6648 8.81036 27.9987 8.90997C28.3326 9.02617 28.8639 9.32499 29.1674 9.574C29.5165 9.85621 29.8353 10.3376 30.0022 10.7859C30.154 11.2009 30.2754 11.8649 30.2602 12.2799C30.2451 12.7115 30.0629 13.4586 29.8353 14.023C29.6076 14.5708 29.1978 15.3179 28.9398 15.6831C28.6817 16.0483 28.1202 16.7123 27.6952 17.1439C27.2854 17.5922 26.4202 18.3226 25.798 18.7874C25.1757 19.2356 23.7034 20.1155 22.5347 20.7463C21.366 21.3771 19.7572 22.1242 18.9679 22.4064C18.1787 22.6886 17.3894 22.9874 17.2225 23.0704C17.0555 23.1534 16.3118 23.4024 15.5529 23.6348C14.8131 23.8614 13.7271 24.1511 13.0965 24.3193L13.0963 24.3193L13.0962 24.3194L13.0486 24.3321C12.4263 24.4815 11.7888 24.7305 11.637 24.8799C11.4853 25.0293 11.3638 25.3281 11.3638 25.5605C11.3638 25.7929 11.4852 26.0918 11.6218 26.2246C11.8343 26.4238 12.3808 26.4736 14.4753 26.4736C16.7671 26.4736 17.1466 26.5068 17.6778 26.8056C18.1939 27.0878 18.3001 27.2372 18.3305 27.7186C18.376 28.1834 18.2698 28.4657 17.7992 29.1297C17.4653 29.5945 16.7671 30.3249 16.2207 30.7732C15.6895 31.2048 14.4905 31.9684 13.5798 32.4498C13.2885 32.6038 12.9398 32.7765 12.5714 32.951C11.9626 32.1346 10.6041 30.4107 9.48744 29.0447Z" fill="black"/>
</svg>
